<svg width="828" height="548" viewBox="0 0 828 548" fill="none" xmlns="http://www.w3.org/2000/svg">
<path d="M144.143 375.437C126.167 348.641 121.795 315.679 121.309 292.733C120.786 267.843 124.598 249.045 124.635 248.858L123.364 248.447C123.327 248.634 119.515 267.582 120.038 292.621C120.524 315.791 124.934 349.127 143.134 376.221L144.143 375.437Z" fill="#3C8F7C"/>
<path d="M128.634 244.15C128.447 249.793 126.167 254.614 122.804 257.641C119.702 253.792 117.833 248.485 118.057 242.842C118.282 237.199 120.524 232.378 123.887 229.35C126.989 233.2 128.858 238.507 128.634 244.15Z" fill="#3C8F7C"/>
<path d="M117.609 257.566C120.673 262.312 121.757 267.843 121.01 272.702C116.563 271.767 112.19 268.74 109.126 263.957C106.061 259.173 104.977 253.679 105.725 248.821C110.172 249.755 114.582 252.783 117.609 257.566Z" fill="#3C8F7C"/>
<path d="M111.667 273.075C116.264 275.953 119.44 280.475 120.786 285.333C116.563 286.716 111.555 286.155 106.995 283.315C102.399 280.438 99.1847 275.916 97.8394 271.057C102.062 269.675 107.07 270.235 111.667 273.075Z" fill="#3C8F7C"/>
<path d="M114.432 294.34C118.058 296.582 120.412 300.581 121.159 305.066C117.534 306.822 113.349 306.785 109.724 304.542C106.099 302.263 103.782 298.264 102.997 293.779C106.659 292.023 110.807 292.06 114.432 294.34Z" fill="#3C8F7C"/>
<path d="M128.185 268.553C132.072 266.199 136.519 265.937 140.406 267.395C139.546 271.655 137.005 275.579 133.118 277.934C129.194 280.251 124.747 280.55 120.86 279.092C121.72 274.794 124.261 270.908 128.185 268.553Z" fill="#3C8F7C"/>
<path d="M128.26 283.278C132.147 280.961 136.631 280.662 140.48 282.119C139.621 286.38 137.08 290.304 133.193 292.658C129.269 294.975 124.822 295.274 120.935 293.817C121.795 289.556 124.336 285.632 128.26 283.278Z" fill="#3C8F7C"/>
<path d="M125.606 506.985C87.9357 493.27 61.5886 460.569 46.1541 435.53C29.3368 408.361 21.3766 384.107 21.3018 383.883L19.6201 384.555C19.7322 384.78 27.7298 409.221 44.6218 436.539C60.2432 461.84 86.8893 494.877 125.008 508.779L125.606 506.985Z" fill="#96D9C9"/>
<path d="M22.7594 375.063C26.1976 381.528 26.7956 388.89 24.9643 395.244C18.9849 393.786 13.4165 389.563 9.97827 383.098C6.57744 376.632 5.97949 369.27 7.81071 362.917C13.7902 364.374 19.3586 368.635 22.7594 375.063Z" fill="#96D9C9"/>
<path d="M19.097 399.803C25.637 402.344 30.458 407.502 32.775 413.556C27.1319 416.508 20.2181 417.031 13.6781 414.453C7.138 411.911 2.31705 406.754 0 400.7C5.60576 397.748 12.5569 397.224 19.097 399.803Z" fill="#96D9C9"/>
<path d="M22.4604 422.338C29.4863 421.404 36.0263 423.571 40.6978 427.757C36.8859 433.101 30.869 436.913 23.8431 437.847C16.8172 438.782 10.2772 436.577 5.60571 432.391C9.455 427.084 15.4719 423.272 22.4604 422.338Z" fill="#96D9C9"/>
<path d="M35.7647 443.939C42.7532 443.005 49.3306 445.21 54.0021 449.395C50.1528 454.702 44.136 458.514 37.1101 459.448C30.1216 460.383 23.5441 458.215 18.8727 454.029C22.722 448.723 28.7388 444.873 35.7647 443.939Z" fill="#96D9C9"/>
<path d="M34.681 410.304C35.0921 403.465 37.9324 397.299 42.118 393.113C45.8178 397.187 47.9854 403.241 47.6116 410.08C47.2379 416.882 44.3977 423.048 40.212 427.234C36.4749 423.198 34.3073 417.106 34.681 410.304Z" fill="#96D9C9"/>
<path d="M48.5459 432.653C48.8449 425.814 51.6104 419.61 55.7213 415.35C59.4958 419.348 61.7755 425.365 61.4765 432.167C61.1776 439.006 58.4494 445.21 54.3012 449.507C50.5266 445.509 48.2843 439.492 48.5459 432.653Z" fill="#96D9C9"/>
<path d="M58.412 466.287C61.0654 464.867 64.0178 464.83 66.4843 465.914C65.7369 468.679 63.9057 471.183 61.2149 472.603C58.5241 474.023 55.6091 474.061 53.1052 472.977C53.89 470.174 55.7213 467.707 58.412 466.287Z" fill="#96D9C9"/>
<path d="M210.851 473.575C210.851 473.575 245.42 413.294 235.629 398.869C222.1 378.912 199.976 435.717 199.154 430.336C191.418 379.585 193.025 315.53 156.812 305.813C136.183 300.282 158.157 353.649 155.616 367.402C153.037 381.154 118.767 332.048 97.6524 306.112C76.5748 280.139 63.6441 294.452 75.8647 325.956C87.7116 356.414 130.577 392.104 120.972 395.169C111.368 398.233 57.5899 355.779 49.4803 371.438C39.5394 390.61 122.393 424.431 114.096 428.243C105.762 432.092 66.2976 414.116 66.2976 429.401C66.2976 444.686 120.86 448.498 119.44 455.076C117.123 465.802 82.8532 438.408 80.1998 453.245C77.4343 468.418 126.69 469.576 124.971 481.423C124 488.262 111.592 481.124 109.35 490.504C104.23 511.881 181.851 541.853 181.851 541.853L210.851 473.575Z" fill="#3C8F7C"/>
<path d="M268.89 484.936C280.662 490.467 277.485 504.182 277.485 504.182C277.485 504.182 309.438 479.218 321.36 493.793C333.319 508.331 327.04 536.883 313.026 541.517C299.011 546.151 177.18 542.899 177.18 542.899C177.18 542.899 258.276 479.965 268.89 484.936Z" fill="#50BFA5"/>
<path d="M185.401 520.103L186.522 519.168C160.923 487.963 150.01 448.872 145.339 421.591C140.294 391.955 141.303 369.42 141.303 369.196L139.77 368.934C139.77 369.158 138.724 391.843 143.807 421.628C148.515 449.171 159.54 488.598 185.401 520.103Z" fill="#50BFA5"/>
<path d="M144.741 364.262C145.488 370.989 143.769 376.819 140.406 380.519C136.108 376.109 133.006 369.868 132.259 363.141C131.511 356.414 133.23 350.584 136.594 346.885C140.892 351.294 143.993 357.536 144.741 364.262Z" fill="#50BFA5"/>
<path d="M134.763 379.921C139.135 385.49 141.377 391.992 141.377 397.822C136.071 396.888 130.465 393.45 126.055 387.881C121.682 382.35 119.44 375.81 119.44 370.018C124.747 370.952 130.353 374.39 134.763 379.921Z" fill="#50BFA5"/>
<path d="M130.652 398.645C136.444 401.858 140.966 407.128 143.358 412.846C138.761 414.677 132.857 414.191 127.027 410.977C121.234 407.801 116.712 402.531 114.283 396.813C118.917 394.982 124.822 395.468 130.652 398.645Z" fill="#50BFA5"/>
<path d="M141.041 429.476C143.545 430.635 145.563 432.727 146.759 435.045C144.89 435.979 142.424 435.979 139.92 434.82C137.379 433.662 135.361 431.569 134.202 429.252C136.033 428.318 138.5 428.318 141.041 429.476Z" fill="#50BFA5"/>
<path d="M144.18 440.987C146.684 442.145 148.702 444.201 149.898 446.555C148.03 447.489 145.563 447.489 143.059 446.294C140.555 445.135 138.5 443.08 137.341 440.725C139.21 439.791 141.676 439.828 144.18 440.987Z" fill="#50BFA5"/>
<path d="M148.926 392.59C153.037 389.638 158.12 389.152 162.866 390.722C162.642 395.842 160.4 400.588 156.289 403.54C152.215 406.493 147.095 407.016 142.349 405.446C142.573 400.289 144.816 395.543 148.926 392.59Z" fill="#50BFA5"/>
<path d="M151.655 410.118C155.765 407.165 160.848 406.679 165.594 408.249C165.37 413.369 163.128 418.115 159.017 421.068C154.943 424.02 149.823 424.543 145.077 422.973C145.301 417.816 147.544 413.07 151.655 410.118Z" fill="#50BFA5"/>
<path d="M153.448 435.418C156.102 433.512 159.428 433.176 162.53 434.222C162.38 437.548 160.923 440.65 158.232 442.556C155.579 444.462 152.253 444.799 149.188 443.79C149.3 440.463 150.795 437.362 153.448 435.418Z" fill="#50BFA5"/>
<path d="M204.685 543.497C204.685 543.497 167.276 495.475 151.655 488.112C134.987 480.264 149.412 507.434 149.412 507.434C149.412 507.434 113.797 472.416 105.426 481.161C97.0544 489.906 105.986 498.091 105.986 498.091C105.986 498.091 76.1263 492.56 71.7911 503.734C65.1016 520.925 114.171 529.446 114.171 529.446C114.171 529.446 90.6639 524.288 95.3727 534.939C102.473 550.972 204.685 543.497 204.685 543.497Z" fill="#50BFA5"/>
<path d="M71.7911 503.734C76.1263 492.56 105.986 498.091 105.986 498.091C105.986 498.091 97.0544 489.906 105.426 481.161C113.797 472.416 141.676 493.083 141.676 493.083C141.676 493.083 137.379 474.098 158.307 489.047C173.293 499.698 202.181 539.461 202.181 539.461L71.7911 503.734Z" fill="#96D9C9"/>
<path d="M177.18 542.787C177.18 542.787 236.825 547.01 248.41 536.322C260.033 525.671 248.522 506.312 248.522 506.312C248.522 506.312 268.965 490.13 268.666 479.592C268.329 469.015 255.025 474.36 255.025 474.36C255.025 474.36 277.597 445.284 272.253 439.753C262.275 429.439 236.152 459.672 236.152 459.672C236.152 459.672 243.888 445.284 235.704 443.005C223.371 439.567 214.327 475.032 214.327 475.032C214.327 475.032 216.607 461.018 208.123 462.886C192.876 466.25 177.18 542.787 177.18 542.787Z" fill="#50BFA5"/>
<path d="M704.607 378.426L709.428 366.729C713.165 358.134 722.732 354.06 730.767 357.573C751.06 366.467 759.88 391.208 750.499 412.846L743.586 428.654C740.596 435.605 741.642 443.229 745.716 448.573C749.378 453.469 750.014 460.271 747.435 466.138L743.81 474.472C739.886 483.516 732.225 490.205 723.181 492.933C717.874 494.578 713.202 498.539 710.736 504.257L705.579 516.067C699.898 529.109 685.36 535.35 673.14 529.969L666.151 526.904C653.893 521.56 648.587 506.612 654.267 493.569C663.423 477.947 662.713 466.325 659.462 458.402C654.678 446.779 654.716 433.438 659.91 421.516L660.62 419.872C666.077 407.315 676.615 397.934 689.21 393.898C694.741 392.142 700.533 387.807 704.607 378.426Z" fill="#50BFA5"/>
<path d="M617.12 542.376C626.986 529.558 681.698 461.504 716.94 450.068C755.806 437.436 719.182 487.589 719.182 487.589C719.182 487.589 788.133 411.911 813.433 418.75C836.641 424.992 813.433 471.893 813.433 471.893C813.433 471.893 839.556 445.92 871.248 445.92C902.079 445.92 849.834 540.358 846.993 545.291L617.12 542.376Z" fill="#96D9C9"/>
<path d="M588.269 475.219C588.269 475.219 558.969 410.566 568.761 396.141C582.289 376.221 599.144 437.399 599.966 432.017C607.702 381.229 606.058 317.174 642.308 307.495C662.9 301.964 640.963 355.331 643.504 369.046C646.083 382.799 680.315 333.73 701.43 307.756C722.545 281.82 735.476 296.134 723.218 327.638C711.409 358.096 668.543 393.786 678.148 396.851C687.715 399.878 733.832 361.049 741.941 376.707C751.882 395.879 682.931 423.086 691.265 426.935C699.562 430.747 738.615 405.147 738.615 426.599C738.615 441.846 680.129 449.47 681.549 456.048C683.828 466.736 716.23 440.09 718.92 454.926C721.649 470.099 675.831 472.342 677.55 484.226C678.522 491.027 690.032 482.619 692.984 491.775C699.711 512.516 633.937 543.012 633.937 543.012L588.269 475.219Z" fill="#3C8F7C"/>
<path d="M824.907 396.738C796.728 440.874 776.211 492.111 764.439 544.245L761.636 544.207C773.371 493.195 794.598 441.547 822.739 397.449C829.279 387.171 836.342 375.026 848.563 371.027C848.824 370.952 848.899 371.326 848.675 371.4C837.501 375.623 831.036 387.134 824.907 396.738Z" fill="#3C8F7C"/>
<path d="M770.867 544.32C802.334 501.379 840.976 461.205 886.495 426.673C886.944 426.337 887.542 427.122 887.093 427.458C843.929 460.756 805.884 499.922 773.745 544.357L770.867 544.32Z" fill="#3C8F7C"/>
<path d="M827.485 369.345C828.195 370.429 830.998 373.194 831.783 376.894C832.904 380.37 832.045 384.705 831.932 384.555C831.708 384.63 835.146 381.752 836.23 377.118C837.613 372.708 836.641 366.542 834.922 364.524C831.932 359.927 826.738 359.442 825.729 361.684C824.645 363.889 826.028 366.916 827.485 369.345Z" fill="#3C8F7C"/>
<path d="M834.212 408.772C833.166 408.025 830.438 405.185 826.813 404.288C823.374 403.129 819.002 403.914 819.151 403.989C819.077 404.213 822.029 400.812 826.626 399.84C831.073 398.532 837.202 399.653 839.183 401.41C843.705 404.474 844.078 409.706 841.836 410.678C839.594 411.687 836.604 410.267 834.212 408.772Z" fill="#3C8F7C"/>
<path d="M824.047 426.038C823.001 425.29 820.272 422.45 816.647 421.553C813.172 420.395 808.837 421.18 808.986 421.254C808.874 421.479 811.864 418.115 816.461 417.106C820.908 415.798 826.999 416.919 829.017 418.676C833.539 421.74 833.876 426.972 831.634 427.944C829.429 428.953 826.439 427.533 824.047 426.038Z" fill="#3C8F7C"/>
<path d="M813.247 388.89C814.143 389.825 817.32 392.142 818.703 395.655C820.31 398.906 820.16 403.353 820.048 403.204C819.824 403.316 822.776 399.915 823.113 395.206C823.748 390.61 821.842 384.705 819.824 382.948C816.162 378.875 810.967 379.249 810.332 381.603C809.622 383.957 811.415 386.723 813.247 388.89Z" fill="#3C8F7C"/>
<path d="M798.298 408.473C799.531 409.146 803.941 410.379 806.146 413.668C808.65 416.62 808.986 421.628 808.799 421.516C808.575 421.74 811.939 416.695 811.789 411.276C812.125 405.857 808.911 400.065 806.071 399.018C800.839 396.028 794.15 398.682 793.626 401.597C792.991 404.549 795.682 406.829 798.298 408.473Z" fill="#3C8F7C"/>
<path d="M782.527 438.146C783.91 438.595 788.432 439.043 791.16 441.958C794.112 444.425 795.271 449.321 795.121 449.246C794.897 449.507 797.401 443.939 796.317 438.632C795.719 433.213 791.608 428.093 788.656 427.495C782.976 425.477 776.847 429.215 776.772 432.167C776.66 435.157 779.687 436.988 782.527 438.146Z" fill="#3C8F7C"/>
<path d="M829.13 458.813C830.101 459.448 833.614 460.682 835.221 463.484C837.09 466.026 837.09 470.137 836.94 470.025C836.753 470.211 839.781 466.287 839.967 461.84C840.528 457.468 838.248 452.609 836.006 451.563C831.933 448.835 826.327 450.629 825.729 452.946C825.019 455.3 827.074 457.356 829.13 458.813Z" fill="#3C8F7C"/>
<path d="M829.391 502.65C829.578 503.809 830.811 507.247 830.027 510.648C829.578 514.011 827.149 517.3 827.149 517.15C826.925 517.15 830.923 516.067 833.652 512.628C836.567 509.452 838.136 503.921 837.501 501.529C836.828 496.484 832.643 494.055 830.923 495.512C829.167 496.97 829.13 500.034 829.391 502.65Z" fill="#3C8F7C"/>
<path d="M803.642 514.161C803.829 515.356 805.062 518.795 804.277 522.195C803.829 525.522 801.4 528.848 801.4 528.661C801.175 528.661 805.174 527.577 807.902 524.139C810.78 520.962 812.387 515.431 811.752 513.039C811.079 508.032 806.893 505.565 805.174 507.06C803.418 508.48 803.38 511.544 803.642 514.161Z" fill="#3C8F7C"/>
<path d="M835.931 526.643C835.408 525.671 834.399 522.457 831.97 520.364C829.765 518.159 826.14 517.075 826.215 517.225C826.065 517.337 829.616 515.88 833.54 516.926C837.426 517.636 841.687 520.813 842.546 522.905C844.826 527.016 843.107 531.165 841.051 531.015C838.921 530.978 837.202 528.735 835.931 526.643Z" fill="#3C8F7C"/>
<path d="M880.628 502.239C872.518 502.986 864.483 504.481 856.598 506.537C842.21 510.311 828.382 515.917 814.779 521.859C808.089 524.774 801.362 527.652 794.785 530.828C791.72 532.323 788.619 533.855 785.778 535.761C781.966 538.34 776.024 543.497 775.314 544.319L778.453 544.432C780.584 542.675 788.432 536.06 799.307 530.828C825.093 518.384 851.889 505.64 880.665 502.501C880.815 502.463 880.777 502.239 880.628 502.239Z" fill="#3C8F7C"/>
<path d="M289.07 0H637.861C648.923 0 657.892 8.93185 657.892 19.9939V525.783C657.892 536.845 648.923 545.814 637.861 545.814H289.07C278.008 545.814 269.039 536.845 269.039 525.783V19.9939C269.039 8.93185 278.008 0 289.07 0Z" fill="#F7CC7F"/>
<path d="M626.537 128.148H304.057V44.8835H626.537V128.148Z" fill="#3CB4C5"/>
<g style="mix-blend-mode:multiply" opacity="0.5">
<path d="M312.615 56.8798H626.537V44.8835H304.057V128.148H312.615V56.8798Z" fill="#3CB4C5"/>
</g>
<path d="M395.057 181.888H305.589C304.729 181.888 304.057 181.216 304.057 180.356V153.448C304.057 152.589 304.729 151.879 305.589 151.879H395.057C395.879 151.879 396.589 152.589 396.589 153.448V180.356C396.589 181.216 395.879 181.888 395.057 181.888Z" fill="#F47458"/>
<path d="M510.012 181.888H420.582C419.722 181.888 419.012 181.216 419.012 180.356V153.448C419.012 152.589 419.722 151.879 420.582 151.879H510.012C510.872 151.879 511.544 152.589 511.544 153.448V180.356C511.544 181.216 510.872 181.888 510.012 181.888Z" fill="#F47458"/>
<path d="M625.005 181.888H535.537C534.678 181.888 534.005 181.216 534.005 180.356V153.448C534.005 152.589 534.678 151.879 535.537 151.879H625.005C625.865 151.879 626.537 152.589 626.537 153.448V180.356C626.537 181.216 625.865 181.888 625.005 181.888Z" fill="#F47458"/>
<path d="M372.223 272.889H307.495C305.589 272.889 304.057 271.356 304.057 269.45V209.095C304.057 207.189 305.589 205.657 307.495 205.657H372.223C374.129 205.657 375.661 207.189 375.661 209.095V269.45C375.661 271.356 374.129 272.889 372.223 272.889Z" fill="#F47458"/>
<path d="M455.823 272.889H391.133C389.227 272.889 387.694 271.356 387.694 269.45V209.095C387.694 207.189 389.227 205.657 391.133 205.657H455.823C457.729 205.657 459.299 207.189 459.299 209.095V269.45C459.299 271.356 457.729 272.889 455.823 272.889Z" fill="#FAE0B2"/>
<path d="M539.461 272.889H474.771C472.865 272.889 471.295 271.356 471.295 269.45V209.095C471.295 207.189 472.865 205.657 474.771 205.657H539.461C541.367 205.657 542.899 207.189 542.899 209.095V269.45C542.899 271.356 541.367 272.889 539.461 272.889Z" fill="#FAE0B2"/>
<path d="M372.223 355.779H307.495C305.589 355.779 304.057 354.247 304.057 352.341V291.986C304.057 290.08 305.589 288.547 307.495 288.547H372.223C374.129 288.547 375.661 290.08 375.661 291.986V352.341C375.661 354.247 374.129 355.779 372.223 355.779Z" fill="#F47458"/>
<path d="M455.823 355.779H391.133C389.227 355.779 387.694 354.247 387.694 352.341V291.986C387.694 290.08 389.227 288.547 391.133 288.547H455.823C457.729 288.547 459.299 290.08 459.299 291.986V352.341C459.299 354.247 457.729 355.779 455.823 355.779Z" fill="#FAE0B2"/>
<path d="M539.461 355.779H474.771C472.865 355.779 471.295 354.247 471.295 352.341V291.986C471.295 290.08 472.865 288.547 474.771 288.547H539.461C541.367 288.547 542.899 290.08 542.899 291.986V352.341C542.899 354.247 541.367 355.779 539.461 355.779Z" fill="#FAE0B2"/>
<path d="M611.962 205.657H569.508C561.473 205.657 554.933 212.197 554.933 220.269V241.085V258.239V341.167C554.933 349.239 561.473 355.779 569.508 355.779H611.962C619.997 355.779 626.537 349.239 626.537 341.167V258.239V241.085V220.269C626.537 212.197 619.997 205.657 611.962 205.657Z" fill="#FAE0B2"/>
<path d="M372.223 438.707H307.495C305.589 438.707 304.057 437.175 304.057 435.269V374.913C304.057 373.007 305.589 371.438 307.495 371.438H372.223C374.129 371.438 375.661 373.007 375.661 374.913V435.269C375.661 437.175 374.129 438.707 372.223 438.707Z" fill="#F47458"/>
<path d="M455.823 438.707H391.133C389.227 438.707 387.694 437.175 387.694 435.269V374.913C387.694 373.007 389.227 371.438 391.133 371.438H455.823C457.729 371.438 459.299 373.007 459.299 374.913V435.269C459.299 437.175 457.729 438.707 455.823 438.707Z" fill="#FAE0B2"/>
<path d="M539.461 438.707H474.771C472.865 438.707 471.295 437.175 471.295 435.269V374.913C471.295 373.007 472.865 371.438 474.771 371.438H539.461C541.367 371.438 542.899 373.007 542.899 374.913V435.269C542.899 437.175 541.367 438.707 539.461 438.707Z" fill="#FAE0B2"/>
<path d="M623.099 438.707H558.371C556.465 438.707 554.933 437.175 554.933 435.269V374.913C554.933 373.007 556.465 371.438 558.371 371.438H623.099C625.005 371.438 626.537 373.007 626.537 374.913V435.269C626.537 437.175 625.005 438.707 623.099 438.707Z" fill="#FAE0B2"/>
<path d="M372.223 521.598H307.495C305.589 521.598 304.057 520.065 304.057 518.159V457.804C304.057 455.898 305.589 454.366 307.495 454.366H372.223C374.129 454.366 375.661 455.898 375.661 457.804V518.159C375.661 520.065 374.129 521.598 372.223 521.598Z" fill="#F47458"/>
<path d="M455.823 521.598H391.133C389.227 521.598 387.694 520.065 387.694 518.159V457.804C387.694 455.898 389.227 454.366 391.133 454.366H455.823C457.729 454.366 459.299 455.898 459.299 457.804V518.159C459.299 520.065 457.729 521.598 455.823 521.598Z" fill="#FAE0B2"/>
<path d="M539.461 521.598H474.771C472.865 521.598 471.295 520.065 471.295 518.159V457.804C471.295 455.898 472.865 454.366 474.771 454.366H539.461C541.367 454.366 542.899 455.898 542.899 457.804V518.159C542.899 520.065 541.367 521.598 539.461 521.598Z" fill="#FAE0B2"/>
<path d="M623.099 521.598H558.371C556.465 521.598 554.933 520.065 554.933 518.159V457.804C554.933 455.898 556.465 454.366 558.371 454.366H623.099C625.005 454.366 626.537 455.898 626.537 457.804V518.159C626.537 520.065 625.005 521.598 623.099 521.598Z" fill="#E87B50"/>
<path d="M352.117 387.396V390.796L335.598 425.515H330.254L346.735 391.805V391.693H328.161V387.396H352.117Z" fill="white"/>
<path fill-rule="evenodd" clip-rule="evenodd" d="M410.94 415.835C410.94 411.014 413.817 407.614 418.489 405.633L418.414 405.446C414.228 403.465 412.397 400.177 412.397 396.888C412.397 390.871 417.48 386.76 424.132 386.76C431.494 386.76 435.194 391.394 435.194 396.14C435.194 399.354 433.624 402.83 428.953 405.035V405.222C433.662 407.09 436.577 410.454 436.577 415.088C436.577 421.703 430.934 426.15 423.683 426.15C415.723 426.15 410.94 421.404 410.94 415.835ZM431.382 415.611C431.382 410.977 428.168 408.735 423.048 407.277C418.601 408.585 416.209 411.5 416.209 415.125C416.022 419.012 418.937 422.413 423.796 422.413C428.43 422.413 431.382 419.535 431.382 415.611ZM417.256 396.552C417.256 400.363 420.133 402.419 424.506 403.577C427.757 402.456 430.298 400.139 430.298 396.664C430.298 393.637 428.467 390.46 423.87 390.46C419.573 390.46 417.256 393.263 417.256 396.552Z" fill="white"/>
<path fill-rule="evenodd" clip-rule="evenodd" d="M436.651 487.926C436.651 500.894 431.868 508.032 423.459 508.032C416.022 508.032 411.014 501.08 410.902 488.449C410.902 475.668 416.396 468.642 424.095 468.642C432.092 468.642 436.651 475.817 436.651 487.926ZM416.022 488.524C416.022 498.427 419.049 504.07 423.721 504.07C428.99 504.07 431.494 497.904 431.494 488.15C431.494 478.807 429.102 472.641 423.796 472.641C419.311 472.641 416.022 478.134 416.022 488.524Z" fill="white"/>
<path fill-rule="evenodd" clip-rule="evenodd" d="M499.212 421.89C500.333 422.002 501.604 421.89 503.36 421.703C506.35 421.292 509.153 420.058 511.32 418.003C513.824 415.723 515.618 412.36 516.328 407.875H516.141C514.048 410.454 511.021 411.986 507.209 411.986C500.37 411.986 495.998 406.791 495.998 400.289C495.998 393.076 501.192 386.76 508.966 386.76C516.739 386.76 521.523 393.076 521.523 402.83C521.523 411.201 518.72 417.069 514.983 420.694C512.068 423.571 508.032 425.328 503.958 425.814C502.089 426.113 500.445 426.15 499.212 426.113V421.89ZM501.08 399.952C501.08 404.699 503.958 408.025 508.405 408.025C511.843 408.025 514.534 406.343 515.88 404.063C516.141 403.577 516.328 402.98 516.328 402.195C516.328 395.655 513.936 390.684 508.555 390.684C504.182 390.684 501.08 394.571 501.08 399.952Z" fill="white"/>
<path fill-rule="evenodd" clip-rule="evenodd" d="M343.372 340.98V330.59H325.695V327.19L342.661 302.898H348.192V326.554H353.537V330.59H348.192V340.98H343.372ZM343.372 326.554V313.848C343.372 311.855 343.434 309.862 343.558 307.868H343.372C342.213 310.073 341.279 311.718 340.232 313.474L330.927 326.442V326.554H343.372Z" fill="white"/>
<path d="M434.073 307.233H419.573L418.115 317.025C419.012 316.875 419.834 316.763 421.217 316.763C424.132 316.763 427.084 317.436 429.401 318.818C432.391 320.537 434.82 323.789 434.82 328.61C434.82 336.047 428.953 341.615 420.694 341.615C416.545 341.615 413.032 340.457 411.239 339.298L412.509 335.337C414.116 336.308 417.181 337.467 420.656 337.467C425.477 337.467 429.626 334.29 429.626 329.208C429.588 324.275 426.299 320.762 418.713 320.762C416.545 320.762 414.864 320.986 413.444 321.173L415.91 302.898H434.073V307.233Z" fill="white"/>
<path fill-rule="evenodd" clip-rule="evenodd" d="M517.898 306.523C516.851 306.448 515.506 306.523 514.048 306.747C505.976 308.093 501.716 314.035 500.856 320.276H501.043C502.837 317.884 505.976 315.903 510.199 315.903C516.926 315.903 521.635 320.762 521.635 328.199C521.635 335.187 516.926 341.615 509.041 341.615C500.894 341.615 495.587 335.299 495.587 325.396C495.587 317.884 498.278 311.979 502.015 308.205C505.191 305.103 509.377 303.16 514.161 302.599C515.693 302.337 516.963 302.3 517.898 302.3V306.523ZM516.44 328.498C516.44 323.041 513.338 319.753 508.63 319.753C505.528 319.753 502.65 321.696 501.267 324.462C500.894 325.022 500.669 325.807 500.669 326.741C500.781 333.02 503.659 337.654 509.041 337.654C513.488 337.654 516.44 333.954 516.44 328.498Z" fill="white"/>
<path d="M338.625 226.697H338.513L331.898 230.247L330.927 226.323L339.223 221.876H343.596V259.958H338.625V226.697Z" fill="white"/>
<path d="M411.426 259.958V256.819L415.462 252.895C425.141 243.626 429.514 238.693 429.588 232.938C429.588 229.089 427.72 225.501 422.039 225.501C418.601 225.501 415.723 227.258 413.967 228.715L412.36 225.09C414.976 222.885 418.713 221.241 423.086 221.241C431.27 221.241 434.708 226.847 434.708 232.303C434.708 239.329 429.626 245.009 421.628 252.783L418.601 255.585V255.698H435.642V259.958H411.426Z" fill="white"/>
<path d="M497.455 254.053C498.913 254.987 502.314 256.445 505.864 256.445C512.479 256.445 514.534 252.222 514.459 249.083C514.422 243.739 509.601 241.459 504.668 241.459H501.79V237.572H504.668C508.405 237.572 513.114 235.666 513.114 231.144C513.114 228.08 511.208 225.389 506.462 225.389C503.435 225.389 500.52 226.734 498.875 227.93L497.53 224.156C499.511 222.698 503.36 221.241 507.471 221.241C514.945 221.241 518.309 225.688 518.309 230.322C518.309 234.246 515.992 237.572 511.32 239.291V239.403C515.992 240.338 519.766 243.851 519.766 249.195C519.766 255.286 515.057 260.631 505.939 260.631C501.678 260.631 497.941 259.285 496.073 258.052L497.455 254.053Z" fill="white"/>
<path d="M344.455 502.388C344.455 504.892 342.4 506.948 339.859 506.948C337.317 506.948 335.262 504.892 335.262 502.388C335.262 499.847 337.317 497.792 339.859 497.792C342.4 497.792 344.455 499.847 344.455 502.388Z" fill="white"/>
<path d="M617.942 283.128H593.837V258.949H587.633V283.128H563.529V289.369H587.633V313.549H593.837V289.369H617.942V283.128Z" fill="white"/>
<path d="M523.167 502.314L510.386 489.495L523.167 476.677L519.878 473.388L507.097 486.206L494.354 473.388L491.065 476.677L503.809 489.495L491.065 502.314L494.354 505.602L507.097 492.784L519.878 505.602L523.167 502.314Z" fill="white"/>
<path d="M609.421 409.968H569.06V403.764H609.421V409.968Z" fill="white"/>
<path d="M610.916 481.647H570.554V475.443H610.916V481.647Z" fill="white"/>
<path d="M610.916 497.269H570.554V491.065H610.916V497.269Z" fill="white"/>
<path d="M267.918 325.471C254.688 314.745 219.97 329.581 214.775 336.533C209.693 343.334 199.378 415.163 206.965 420.133C214.589 425.104 238.095 435.194 247.887 426.3C257.678 417.442 267.918 325.471 267.918 325.471Z" fill="#20407A"/>
<path d="M275.355 323.49C275.355 323.49 297.89 311.979 300.917 306.261C303.982 300.544 316.651 282.007 316.651 282.007C316.651 282.007 323.228 282.119 324.947 285.034C322.817 292.957 316.352 314.932 307.981 321.434C299.572 327.9 277.523 341.241 277.523 341.241L275.355 323.49Z" fill="#BD6B4F"/>
<path d="M322.63 292.21C319.416 291.35 315.418 289.631 312.428 288.248C313.736 286.567 314.595 285.259 314.782 284.623C315.679 281.783 309.999 270.609 310.933 269.675C312.652 269.114 315.717 274.869 316.277 274.309C316.838 273.748 317.286 260.705 319.192 260.743C321.098 260.78 319.641 270.459 320.836 270.571C322.144 270.721 323.34 271.02 324.574 271.581C325.844 272.104 327.414 272.776 328.087 273.86C328.685 274.832 329.581 276.476 327.563 280.288C324.723 285.67 325.284 284.474 323.602 289.556C323.452 289.967 323.153 290.902 322.63 292.21Z" fill="#BD6B4F"/>
<path d="M280.363 461.466C280.363 461.466 281.036 475.518 281.036 484.114C281.036 492.672 267.843 526.269 269.039 531.053C270.235 535.874 256.594 535.201 256.594 535.201C256.594 535.201 255.66 509.115 259.173 496.783C262.686 484.45 259.173 459.075 259.173 459.075L280.363 461.466Z" fill="#BD6B4F"/>
<path d="M247.252 454.702C247.252 454.702 242.804 477.947 239.217 483.254C235.629 488.561 216.27 524.737 216.27 529.333C216.27 533.968 204.087 530.193 204.087 530.193C204.087 530.193 214.364 490.616 218.475 478.62C222.586 466.624 224.118 456.683 224.118 456.683L247.252 454.702Z" fill="#BD6B4F"/>
<path d="M284.474 424.057C285.894 432.541 298.226 476.49 298.226 476.49C279.204 481.684 224.679 485.011 204.274 471.856C204.274 471.856 220.381 411.276 229.724 400.027L247.251 397.15L278.307 393.786C278.307 393.786 283.502 418.04 284.474 424.057Z" fill="#07085B"/>
<path d="M289.781 545.814H252.334C252.334 545.814 251.549 532.248 254.128 529.707C256.707 527.129 255.996 530.006 260.294 531.651C264.592 533.295 267.357 529.334 269.338 527.39C271.282 525.409 269.899 533.631 278.121 533.631C286.342 533.631 291.649 542.04 289.781 545.814Z" fill="#FAFCFF"/>
<path d="M216.644 527.876C218.587 528.287 224.679 533.258 226.697 538.639C228.715 544.021 228.154 545.964 228.154 545.964C228.154 545.964 221.951 548.692 210.067 547.832C198.145 546.973 199.976 545.665 199.976 545.665C199.976 545.665 200.836 533.444 202.854 529.707C204.872 526.007 213.243 527.091 216.644 527.876Z" fill="#FAFCFF"/>
<path d="M220.082 374.727C220.082 374.727 212.982 391.544 215.112 397.411C217.242 403.279 222.848 424.805 222.848 424.805C222.848 424.805 218.064 428.916 214.85 428.28C210.552 421.665 198.967 402.867 199.715 392.665C200.499 382.5 205.059 365.907 205.059 365.907L220.082 374.727Z" fill="#BD6B4F"/>
<path d="M211.225 422.002C213.916 420.283 217.728 418.489 220.605 417.256C221.016 419.274 221.39 420.731 221.689 421.254C223.147 423.758 234.807 426.898 234.881 428.131C234.919 429.401 228.528 428.131 228.566 428.916C228.603 429.663 237.236 438.483 235.965 439.828C234.732 441.136 228.229 432.84 227.407 433.662C226.622 434.521 234.545 444.313 232.377 444.761C230.21 445.247 225.95 435.643 224.791 436.203C223.595 436.726 228.042 445.397 227.145 446.331C226.286 447.303 225.426 445.21 224.268 442.93C223.109 440.613 221.689 437.287 221.166 437.81C220.68 438.371 222.511 444.911 221.315 445.546C220.157 446.219 214.626 427.495 212.496 424.394C212.234 424.057 211.786 423.198 211.225 422.002Z" fill="#BD6B4F"/>
<path d="M199.715 373.045C199.715 373.045 205.956 382.238 219.41 386.387C220.755 379.136 222.25 375.736 222.549 375.773C223.296 375.885 226.174 387.433 229.388 400.55C240.113 406.754 278.98 403.69 279.017 397.15C279.017 392.104 272.44 352.976 279.466 347.483C282.007 345.502 301.104 331.114 301.104 331.114C301.104 331.114 295.498 317.062 289.967 311.568C289.967 311.568 278.195 316.277 267.843 320.463C254.24 325.919 243.178 328.498 235.554 331.973C209.693 343.745 205.059 351.668 199.715 373.045Z" fill="#9BC1F9"/>
<path d="M234.695 332.347C241.758 353.499 237.983 391.133 228.005 402.344C225.09 395.356 230.733 374.166 222.549 338.289C222.324 336.458 233.984 330.404 234.695 332.347Z" fill="#466EB6"/>
<path d="M253.754 325.209C263.994 336.308 277.261 381.453 277.597 383.509C277.149 347.408 265.414 326.48 263.134 322.294C261.64 321.285 253.605 324.125 253.754 325.209Z" fill="#466EB6"/>
<path d="M253.754 316.726C253.343 323.266 255.174 328.647 256.221 330.74C256.221 330.74 249.569 337.28 238.469 333.505C239.03 327.675 238.432 321.135 236.75 313.885L253.754 316.726Z" fill="#BD6B4F"/>
<path d="M254.24 324.424C253.829 322.219 253.567 319.566 253.754 316.726L236.75 313.885C237.174 315.704 237.522 317.485 237.796 319.229C243.141 323.116 249.12 325.209 254.24 324.424Z" fill="#A1543A"/>
<path d="M254.688 282.979C260.817 288.622 269.488 307.644 262.238 316.464C253.044 327.676 236.638 320.463 226.697 305.963C216.756 291.5 245.233 274.234 254.688 282.979Z" fill="#BD6B4F"/>
<path d="M236.003 290.416C236.003 290.416 228.865 290.603 231.667 297.33C234.47 304.019 239.553 306.299 236.862 308.99C234.994 310.858 236.563 314.82 237.423 317.025C237.871 318.146 235.89 315.754 233.2 315.53C226.66 314.969 221.876 312.988 219.858 305.327C219.858 305.327 214.028 297.255 215.486 287.875C216.569 280.998 222.175 279.952 222.175 279.952C222.175 279.952 223.707 276.813 231.032 273.3C241.347 268.367 256.819 264.966 256.819 274.495C256.819 280.438 259.36 289.145 236.003 290.416Z" fill="#0E2E35"/>
<path d="M227.743 284.362C217.653 268.964 197.622 276.102 195.604 287.09C193.885 296.47 186.149 300.73 173.293 301.291C155.84 302.001 161.558 326.853 171.723 328.273C160.474 347.333 198.967 359.105 197.809 340.345C211.935 337.803 218.587 330.03 215.747 319.865C212.869 309.7 211.412 283.539 221.129 288.248C231.182 291.425 227.743 284.362 227.743 284.362Z" fill="#0E2E35"/>
<path d="M238.021 303.758C237.497 303.496 230.621 300.506 228.528 304.131C226.772 307.121 230.098 313.474 235.255 313.474C240.412 313.474 244.486 307.084 238.021 303.758Z" fill="#BD6B4F"/>
<path d="M252.334 545.814C252.334 545.814 252.185 542.974 252.222 539.685C256.632 541.591 280.737 541.292 289.482 541.106C290.229 542.862 290.378 544.581 289.781 545.814H252.334Z" fill="#466EB6"/>
<path d="M210.067 547.833C198.145 546.973 199.976 545.665 199.976 545.665C199.976 545.665 200.163 542.862 200.611 539.499C208.871 546.898 221.801 543.124 227.482 540.919C228.566 544.581 228.154 545.964 228.154 545.964C228.154 545.964 221.951 548.692 210.067 547.833Z" fill="#466EB6"/>
<path d="M732.486 501.79C732.486 501.79 734.579 516.403 738.204 521.112C739.4 522.719 741.605 524.699 743.062 527.577C745.342 532.024 744.071 538.639 742.427 542.301C741.568 544.17 742.464 544.17 740.521 544.768C734.766 546.562 728.637 543.535 726.17 538.004C724.788 534.902 723.592 530.754 723.367 525.559C722.732 512.255 718.659 505.528 718.659 505.528L732.486 501.79Z" fill="#BD6B4F"/>
<path d="M669.44 508.48C669.44 508.48 668.132 524.961 669.216 530.305C669.776 533.183 672.878 539.087 671.458 541.778C670.038 544.469 668.394 545.142 668.394 545.142L631.171 545.74C629.116 545.777 630.461 544.469 632.106 543.273C634.796 541.292 636.927 539.984 645.485 535.836C646.045 535.537 648.063 534.267 648.811 533.818C650.679 532.66 652.511 530.866 654.118 529.072C656.808 526.082 657.033 511.582 657.033 511.582L669.44 508.48Z" fill="#BD6B4F"/>
<path d="M640.365 289.407C640.365 289.407 635.656 316.165 638.758 333.692C641.822 351.257 656.584 513.862 656.584 513.862L672.99 514.796C672.99 514.796 676.429 446.854 675.831 437.399C675.233 427.981 670.337 412.173 670.337 412.173L671.981 357.311L651.277 285.296L640.365 289.407Z" fill="#13375B"/>
<path d="M688.612 283.801C688.612 283.801 701.505 303.346 704.607 319.528C707.671 335.748 702.327 385.49 708.269 406.717C711.483 418.19 723.629 435.941 725.46 450.778C727.292 465.615 734.542 504.519 734.542 504.519L718.135 507.77L680.016 410.678L650.081 322.929L642.42 277.709L688.612 283.801Z" fill="#355389"/>
<path d="M725.049 535.089C734.018 536.696 739.961 531.464 743.062 527.502C745.305 531.987 746.426 538.639 744.744 542.301C743.287 545.515 738.989 545.441 735.588 545.553C732 545.702 729.235 543.684 727.478 540.545C726.619 539.087 725.759 537.256 725.049 535.089Z" fill="#355389"/>
<path d="M648.811 533.781C658.64 536.322 665.927 534.603 670.001 532.958C671.047 535.948 672.43 539.723 671.72 541.89C670.785 544.506 669.515 545.104 668.394 545.142C659.387 545.403 635.432 545.702 628.593 545.814C627.621 545.814 627.098 544.693 627.733 543.946C629.415 541.89 648.063 534.267 648.811 533.781Z" fill="#355389"/>
<path d="M637.076 145.937C636.59 134.426 638.272 123.103 643.429 112.377C647.839 103.183 658.789 97.9513 668.805 97.9513C700.496 97.8766 704.532 139.77 724.713 155.952C730.879 160.885 737.793 164.921 743.623 170.228C765.149 189.886 755.47 226.286 735.663 243.552C721.947 255.511 700.347 262.312 683.417 252.932C674.597 248.074 667.908 239.964 663.124 231.07C656.323 218.438 651.95 203.863 647.129 190.446C642.009 176.133 637.711 161.222 637.076 145.937Z" fill="#0E2E35"/>
<path d="M652.436 182.113C652.436 182.113 657.257 188.952 655.239 199.191C653.221 209.431 622.539 241.123 618.689 243.141C614.504 245.383 611.925 244.486 610.056 243.44C593.874 234.209 571.003 185.177 568.35 181.701C566.032 178.637 566.032 178.637 566.032 178.637L568.275 170.378L613.009 219.522C613.009 219.522 649.558 178.674 652.436 182.113Z" fill="#BD6B4F"/>
<path d="M657.817 173.629C657.817 173.629 654.342 175.049 653.295 175.685C646.157 180.169 622.838 205.582 622.838 205.582C622.838 205.582 635.095 218.774 640.552 224.455L671.608 201.06L657.817 173.629Z" fill="#6E9DE0"/>
<path d="M679.829 169.257C679.829 169.257 698.104 168.098 705.317 175.946C712.53 183.794 689.284 245.943 687.976 255.922C686.668 265.937 694.666 292.509 694.666 292.509C694.666 292.509 651.801 301.104 639.543 293.032C639.543 293.032 638.235 221.129 639.543 213.991C640.888 206.853 651.801 177.815 654.454 174.975C657.07 172.134 679.829 169.257 679.829 169.257Z" fill="#9BC1F9"/>
<path d="M673.775 144.928C673.775 144.928 673.85 145.451 674.037 146.385C674.859 150.758 677.998 165.295 680.091 169.294C682.67 174.115 671.346 189.475 660.471 187.606C657.219 187.046 663.199 173.48 662.9 172.022C662.339 169.294 661.592 165.519 660.845 161.67C660.396 159.503 659.985 157.298 659.574 155.205C658.415 149.338 657.444 144.517 657.444 144.517L673.775 144.928Z" fill="#BD6B4F"/>
<path d="M674.037 146.385C673.85 145.451 673.775 144.928 673.775 144.928L657.444 144.517C657.444 144.517 658.415 149.338 659.574 155.205C659.985 157.298 660.396 159.465 660.845 161.633C663.348 161.259 666.002 160.026 668.618 157.746C671.496 155.205 673.401 152.215 674.523 148.964C674.336 147.955 674.149 147.058 674.037 146.385Z" fill="#A1543A"/>
<path d="M662.788 107.892C662.788 107.892 670.486 107.033 675.307 113.236C680.128 119.477 685.323 138.724 673.327 149.188C661.368 159.652 649.521 147.805 647.764 135.248C646.008 122.691 645.335 107.444 662.788 107.892Z" fill="#BD6B4F"/>
<path d="M644.251 135.061C645.672 137.827 648.063 139.359 649.596 138.5C651.128 137.603 651.203 134.65 649.783 131.885C648.362 129.082 645.933 127.55 644.401 128.447C642.869 129.306 642.794 132.296 644.251 135.061Z" fill="#BD6B4F"/>
<path d="M661.928 105.837C661.928 105.837 672.206 124.149 679.568 125.008C686.893 125.831 687.864 135.585 687.864 135.585C687.864 135.585 685.248 113.162 677.961 108.827C670.673 104.529 661.928 105.837 661.928 105.837Z" fill="#0E2E35"/>
<path d="M677.624 129.605C677.027 132.857 678.222 135.958 680.278 136.407C682.371 136.818 684.576 134.389 685.174 131.137C685.771 127.886 684.576 124.896 682.483 124.485C680.39 124.074 678.222 126.354 677.624 129.605Z" fill="#BD6B4F"/>
<path d="M627.509 284.399L675.793 285.632L678.297 218.625L627.173 218.812L627.509 284.399Z" fill="#F47458"/>
<path d="M627.359 247.289C627.509 247.027 631.171 248.858 634.049 248.223C634.647 248.074 632.517 246.317 632.218 245.794C632.18 245.719 627.92 243.028 628.256 241.197C628.63 239.329 632.293 240.524 632.293 240.524C632.293 240.524 642.719 245.308 644.177 246.803C645.634 248.298 646.27 249.382 646.344 249.531C647.017 249.718 647.54 249.867 647.951 249.942C657.556 251.175 673.177 248.971 697.02 245.233V232.751C702.066 233.05 710.885 232.153 714.959 231.705C714.735 241.235 714.847 257.753 712.829 260.93C711.371 263.134 698.814 264.629 684.8 265.676C666.973 267.058 662.302 266.049 646.83 264.966C642.121 264.592 635.693 266.049 633.227 266.049C629.602 266.087 628.331 266.498 626.5 264.592C624.93 262.948 625.117 258.986 625.379 256.52C625.865 251.886 626.014 250.092 627.359 247.289Z" fill="#BD6B4F"/>
<path d="M696.423 170.976C696.423 170.976 706.7 172.882 711.708 182.038C714.996 188.092 718.509 216.083 717.425 236.899C710.474 235.405 698.777 235.143 691.602 235.106C691.863 216.457 692.91 170.34 696.423 170.976Z" fill="#6E9DE0"/>
<path d="M602.582 209.954C602.582 209.954 578.029 179.534 573.208 174.75C568.349 169.967 548.729 156.027 548.131 157.484C547.571 158.979 558.82 169.967 558.67 170.34C558.483 170.751 556.689 173.928 556.054 175.572C555.381 177.254 555.232 181.29 555.793 182.524C556.316 183.794 560.315 185.924 562.557 186.784C564.799 187.643 568.051 187.195 570.741 189.587C573.432 191.979 594.809 223.745 594.809 223.745L602.582 209.954Z" fill="#BD6B4F"/>
</svg>
